<svg width="181" height="65" viewBox="0 0 181 65" fill="none" xmlns="http://www.w3.org/2000/svg">
<g opacity="0.8">
<path d="M89.4368 29.181C89.095 29.181 88.7796 29.0627 88.4904 28.8261C88.2275 28.5895 88.004 28.3003 87.82 27.9586L82.0232 16.6805H78.0799V27.6825C78.0799 28.1294 77.8564 28.4712 77.4095 28.7078C76.9889 28.9444 76.5157 29.0627 75.9899 29.0627C75.4641 29.0627 74.9777 28.9444 74.5308 28.7078C74.1102 28.4712 73.8999 28.1294 73.8999 27.6825V1.57735C73.8999 1.2093 74.0182 0.893828 74.2548 0.630936C74.5177 0.368044 74.8726 0.236598 75.3195 0.236598H82.8119C84.4681 0.236598 85.9798 0.486346 87.3468 0.98584C88.7139 1.45905 89.8049 2.28716 90.6198 3.47017C91.4348 4.62689 91.8423 6.23054 91.8423 8.28109C91.8423 9.85845 91.5925 11.1729 91.093 12.2245C90.6198 13.276 89.9626 14.1173 89.1213 14.7482C88.3064 15.3529 87.3731 15.7998 86.3215 16.089L91.8423 26.4601C91.8948 26.5389 91.9343 26.6441 91.9606 26.7756C91.9869 26.8807 92 26.9727 92 27.0516C92 27.3933 91.8686 27.7351 91.6057 28.0769C91.3428 28.3923 91.0142 28.6552 90.6198 28.8655C90.2518 29.0759 89.8574 29.181 89.4368 29.181ZM78.0799 13.3286H82.8119C84.2841 13.3286 85.454 12.9737 86.3215 12.2639C87.2154 11.5541 87.6623 10.3448 87.6623 8.636C87.6623 6.9272 87.2154 5.7179 86.3215 5.00809C85.454 4.29828 84.2841 3.94338 82.8119 3.94338H78.0799V13.3286Z" fill="white"/>
<path d="M55.1507 29.0627C54.7037 29.0627 54.2831 28.9444 53.8888 28.7078C53.4944 28.4712 53.2973 28.1294 53.2973 27.6825V1.61678C53.2973 1.16986 53.4944 0.828103 53.8888 0.5915C54.2831 0.354899 54.7037 0.236598 55.1507 0.236598H69.1891C69.6886 0.236598 70.0435 0.433767 70.2538 0.828105C70.4641 1.22244 70.5693 1.62992 70.5693 2.05055C70.5693 2.55005 70.451 2.99696 70.2144 3.3913C69.9778 3.75935 69.636 3.94338 69.1891 3.94338H57.4772V12.9737H63.55C63.997 12.9737 64.3387 13.1446 64.5753 13.4864C64.8119 13.8281 64.9302 14.2225 64.9302 14.6694C64.9302 15.0374 64.8251 15.4055 64.6148 15.7735C64.4044 16.1153 64.0495 16.2862 63.55 16.2862H57.4772V25.3559H69.1891C69.636 25.3559 69.9778 25.54 70.2144 25.908C70.451 26.2761 70.5693 26.723 70.5693 27.2488C70.5693 27.6694 70.4641 28.0769 70.2538 28.4712C70.0435 28.8655 69.6886 29.0627 69.1891 29.0627H55.1507Z" fill="white"/>
<path d="M46.2789 63.5673C45.7622 63.5673 45.2843 63.3077 44.8451 62.7885C44.4317 62.2693 44.225 61.5193 44.225 60.5385V3.25115C44.225 2.21271 44.4317 1.46273 44.8451 1.00119C45.2843 0.539667 45.7622 0.308904 46.2789 0.308904C46.7956 0.308904 47.2606 0.539667 47.6739 1.00119C48.1131 1.46273 48.3327 2.21271 48.3327 3.25115V60.5385C48.3327 61.5193 48.1131 62.2693 47.6739 62.7885C47.2606 63.3077 46.7956 63.5673 46.2789 63.5673Z" fill="white"/>
<path d="M22.3091 29.0627C21.941 29.0627 21.5467 28.9839 21.126 28.8261C20.7054 28.6684 20.3637 28.4712 20.1008 28.2346C19.8379 27.9717 19.7064 27.6694 19.7064 27.3276C19.7064 27.2488 19.7196 27.1305 19.7459 26.9727L27.5932 1.41962C27.7509 0.946412 28.0795 0.591507 28.579 0.354904C29.1048 0.118301 29.6569 0 30.2352 0C30.8399 0 31.392 0.118301 31.8915 0.354904C32.4173 0.591507 32.759 0.946412 32.9168 1.41962L40.7246 26.9727C40.7772 27.1305 40.8035 27.2488 40.8035 27.3276C40.8035 27.6431 40.6589 27.9323 40.3697 28.1952C40.1068 28.4581 39.7651 28.6684 39.3445 28.8261C38.9501 28.9839 38.5558 29.0627 38.1614 29.0627C37.8197 29.0627 37.5174 28.997 37.2545 28.8655C37.0179 28.7341 36.847 28.5106 36.7418 28.1952L35.125 22.5956H25.3455L23.7681 28.1952C23.6892 28.5106 23.5052 28.7341 23.216 28.8655C22.9531 28.997 22.6508 29.0627 22.3091 29.0627ZM26.2919 19.2437H34.1786L30.2352 5.7179L26.2919 19.2437Z" fill="white"/>
<path d="M1.85339 29.0627C1.30132 29.0627 0.854399 28.9313 0.51264 28.6684C0.17088 28.4055 0 28.09 0 27.722V1.61678C0 1.16986 0.197169 0.828103 0.591507 0.5915C0.985845 0.354899 1.40647 0.236598 1.85339 0.236598H9.03034C10.45 0.236598 11.7644 0.420623 12.9737 0.788671C14.183 1.15672 15.1557 1.84024 15.8918 2.83923C16.6279 3.81193 16.996 5.2184 16.996 7.05865C16.996 8.71487 16.6936 10.0819 16.089 11.1598C15.5106 12.2376 14.6957 13 13.6441 13.4469C14.4591 13.7624 15.1689 14.183 15.7735 14.7088C16.3782 15.2083 16.8514 15.8918 17.1931 16.7594C17.5349 17.6006 17.7058 18.6916 17.7058 20.0324V20.7816C17.7058 22.8059 17.364 24.4227 16.6805 25.632C15.997 26.8413 15.0637 27.722 13.8807 28.274C12.6977 28.7998 11.3569 29.0627 9.85845 29.0627H1.85339ZM4.14055 25.3559H9.06978C10.4894 25.3559 11.5804 24.9747 12.3428 24.2124C13.1315 23.4237 13.5258 22.1749 13.5258 20.4661V19.8352C13.5258 18.1001 13.1315 16.8777 12.3428 16.1679C11.5804 15.458 10.4894 15.1031 9.06978 15.1031H4.14055V25.3559ZM4.14055 11.7907H8.87261C10.2134 11.7907 11.1992 11.4489 11.8301 10.7654C12.4874 10.0819 12.816 9.06977 12.816 7.72902C12.816 6.83519 12.6451 6.11223 12.3033 5.56016C11.9879 5.00809 11.5278 4.60061 10.9232 4.33771C10.3185 4.07482 9.6087 3.94338 8.79374 3.94338H4.14055V11.7907Z" fill="white"/>
<path d="M26.4634 64.0031C25.9376 64.0031 25.4512 63.8979 25.0043 63.6876C24.5837 63.451 24.3734 63.0961 24.3734 62.6229V36.5571C24.3734 36.1102 24.5705 35.7684 24.9649 35.5318C25.3592 35.2952 25.7799 35.1769 26.2268 35.1769H40.068C40.5412 35.1769 40.883 35.3741 41.0933 35.7684C41.3036 36.1628 41.4088 36.5703 41.4088 36.9909C41.4088 37.4904 41.2905 37.9373 41.0539 38.3316C40.8436 38.6997 40.515 38.8837 40.068 38.8837H28.5534V47.9141H34.6656C35.1125 47.9141 35.4411 48.0849 35.6515 48.4267C35.8881 48.7685 36.0064 49.1628 36.0064 49.6097C36.0064 49.9778 35.9012 50.3458 35.6909 50.7139C35.4806 51.0556 35.1388 51.2265 34.6656 51.2265H28.5534V62.6229C28.5534 63.0961 28.3299 63.451 27.883 63.6876C27.4624 63.8979 26.9892 64.0031 26.4634 64.0031Z" fill="white"/>
<path d="M46.3343 64.0031C45.8085 64.0031 45.3222 63.8848 44.8753 63.6481C44.4546 63.4115 44.2443 63.0698 44.2443 62.6229V36.5177C44.2443 36.0445 44.4546 35.7027 44.8753 35.4924C45.3222 35.2821 45.8085 35.1769 46.3343 35.1769C46.8601 35.1769 47.3333 35.2821 47.7539 35.4924C48.2008 35.7027 48.4243 36.0445 48.4243 36.5177V62.6229C48.4243 63.0698 48.2008 63.4115 47.7539 63.6481C47.3333 63.8848 46.8601 64.0031 46.3343 64.0031Z" fill="white"/>
<path d="M55.7306 64.0031C55.2049 64.0031 54.7185 63.8848 54.2716 63.6481C53.851 63.4115 53.6407 63.0698 53.6407 62.6229V36.5571C53.6407 36.0576 53.851 35.7027 54.2716 35.4924C54.7185 35.2821 55.2049 35.1769 55.7306 35.1769C56.2301 35.1769 56.6508 35.2558 56.9925 35.4135C57.3606 35.545 57.6892 35.7816 57.9784 36.1234C58.2676 36.4651 58.5699 36.9383 58.8854 37.543L67.6397 54.6178V36.5177C67.6397 36.0445 67.85 35.7027 68.2706 35.4924C68.7175 35.2821 69.2039 35.1769 69.7297 35.1769C70.2554 35.1769 70.7286 35.2821 71.1493 35.4924C71.5962 35.7027 71.8196 36.0445 71.8196 36.5177V62.6229C71.8196 63.0698 71.5962 63.4115 71.1493 63.6481C70.7286 63.8848 70.2554 64.0031 69.7297 64.0031C69.2039 64.0031 68.7307 63.8716 68.31 63.6087C67.8894 63.3458 67.5345 62.9646 67.2453 62.4651L57.8206 44.5228V62.6229C57.8206 63.0698 57.5972 63.4115 57.1503 63.6481C56.7296 63.8848 56.2564 64.0031 55.7306 64.0031Z" fill="white"/>
<path d="M77.5286 64.0031C77.1606 64.0031 76.7662 63.9242 76.3456 63.7664C75.925 63.6087 75.5832 63.4115 75.3203 63.1749C75.0574 62.912 74.926 62.6097 74.926 62.268C74.926 62.1891 74.9391 62.0708 74.9654 61.9131L82.8127 36.36C82.9705 35.8867 83.2991 35.5318 83.7986 35.2952C84.3244 35.0586 84.8764 34.9403 85.4548 34.9403C86.0595 34.9403 86.6115 35.0586 87.111 35.2952C87.6368 35.5318 87.9786 35.8867 88.1363 36.36L95.9442 61.9131C95.9968 62.0708 96.0231 62.1891 96.0231 62.268C96.0231 62.5834 95.8785 62.8726 95.5893 63.1355C95.3264 63.3984 94.9846 63.6087 94.564 63.7664C94.1697 63.9242 93.7753 64.0031 93.381 64.0031C93.0392 64.0031 92.7369 63.9373 92.474 63.8059C92.2374 63.6744 92.0665 63.451 91.9614 63.1355L90.3446 57.5359H80.565L78.9877 63.1355C78.9088 63.451 78.7248 63.6744 78.4356 63.8059C78.1727 63.9373 77.8704 64.0031 77.5286 64.0031ZM81.5114 54.184H89.3982L85.4548 40.6582L81.5114 54.184Z" fill="white"/>
<path d="M101.21 64.0031C100.685 64.0031 100.198 63.8848 99.7514 63.6481C99.3308 63.4115 99.1205 63.0698 99.1205 62.6229V36.5571C99.1205 36.0576 99.3308 35.7027 99.7514 35.4924C100.198 35.2821 100.685 35.1769 101.21 35.1769C101.71 35.1769 102.131 35.2558 102.472 35.4135C102.84 35.545 103.169 35.7816 103.458 36.1234C103.747 36.4651 104.05 36.9383 104.365 37.543L113.119 54.6178V36.5177C113.119 36.0445 113.33 35.7027 113.75 35.4924C114.197 35.2821 114.684 35.1769 115.209 35.1769C115.735 35.1769 116.208 35.2821 116.629 35.4924C117.076 35.7027 117.299 36.0445 117.299 36.5177V62.6229C117.299 63.0698 117.076 63.4115 116.629 63.6481C116.208 63.8848 115.735 64.0031 115.209 64.0031C114.684 64.0031 114.21 63.8716 113.79 63.6087C113.369 63.3458 113.014 62.9646 112.725 62.4651L103.3 44.5228V62.6229C103.3 63.0698 103.077 63.4115 102.63 63.6481C102.209 63.8848 101.736 64.0031 101.21 64.0031Z" fill="white"/>
<path d="M130.935 64.2397C129.357 64.2397 127.898 63.9505 126.557 63.3721C125.243 62.7938 124.191 61.8605 123.403 60.5723C122.614 59.2841 122.22 57.5753 122.22 55.4459V43.9707C122.22 41.8413 122.614 40.1325 123.403 38.8443C124.191 37.5561 125.256 36.6228 126.597 36.0445C127.938 35.4661 129.397 35.1769 130.974 35.1769C132.788 35.1769 134.352 35.4924 135.667 36.1234C137.007 36.728 138.046 37.5693 138.782 38.6471C139.544 39.6987 139.926 40.9211 139.926 42.3145C139.926 43.2083 139.755 43.7998 139.413 44.089C139.071 44.3519 138.545 44.4833 137.836 44.4833C137.205 44.4833 136.705 44.3782 136.337 44.1678C135.969 43.9312 135.772 43.5763 135.746 43.1031C135.719 42.7614 135.654 42.3539 135.548 41.8807C135.443 41.4075 135.233 40.9474 134.917 40.5005C134.628 40.0273 134.181 39.6461 133.577 39.3569C132.972 39.0415 132.144 38.8837 131.092 38.8837C129.568 38.8837 128.398 39.3043 127.583 40.1456C126.768 40.9606 126.36 42.2356 126.36 43.9707V55.4459C126.36 57.181 126.768 58.4692 127.583 59.3104C128.424 60.1254 129.633 60.5329 131.211 60.5329C132.21 60.5329 132.998 60.3883 133.577 60.0991C134.181 59.7836 134.628 59.4024 134.917 58.9555C135.207 58.4823 135.404 57.996 135.509 57.4965C135.614 56.9707 135.693 56.4975 135.746 56.0769C135.772 55.5774 135.969 55.2225 136.337 55.0121C136.731 54.8018 137.218 54.6967 137.796 54.6967C138.532 54.6967 139.071 54.8413 139.413 55.1304C139.755 55.4196 139.926 55.998 139.926 56.8655C139.926 58.2852 139.544 59.5602 138.782 60.6906C138.046 61.7948 137.007 62.6623 135.667 63.2932C134.326 63.9242 132.749 64.2397 130.935 64.2397Z" fill="white"/>
<path d="M145.683 64.0031C145.237 64.0031 144.816 63.8848 144.422 63.6481C144.027 63.4115 143.83 63.0698 143.83 62.6229V36.5571C143.83 36.1102 144.027 35.7684 144.422 35.5318C144.816 35.2952 145.237 35.1769 145.683 35.1769H159.722C160.221 35.1769 160.576 35.3741 160.787 35.7684C160.997 36.1628 161.102 36.5703 161.102 36.9909C161.102 37.4904 160.984 37.9373 160.747 38.3316C160.511 38.6997 160.169 38.8837 159.722 38.8837H148.01V47.9141H154.083C154.53 47.9141 154.872 48.0849 155.108 48.4267C155.345 48.7685 155.463 49.1628 155.463 49.6097C155.463 49.9778 155.358 50.3458 155.148 50.7139C154.937 51.0556 154.582 51.2265 154.083 51.2265H148.01V60.2963H159.722C160.169 60.2963 160.511 60.4803 160.747 60.8484C160.984 61.2164 161.102 61.6633 161.102 62.1891C161.102 62.6097 160.997 63.0172 160.787 63.4115C160.576 63.8059 160.221 64.0031 159.722 64.0031H145.683Z" fill="white"/>
<path d="M171.689 64.3185C169.98 64.3185 168.468 64.0688 167.154 63.5693C165.839 63.0698 164.814 62.4651 164.078 61.7553C163.342 61.0192 162.974 60.3226 162.974 59.6653C162.974 59.3499 163.053 59.0212 163.21 58.6795C163.394 58.3377 163.618 58.0485 163.881 57.8119C164.17 57.5491 164.472 57.4176 164.788 57.4176C165.156 57.4176 165.497 57.5753 165.813 57.8908C166.155 58.18 166.562 58.5349 167.035 58.9555C167.509 59.3762 168.1 59.7442 168.81 60.0597C169.52 60.3751 170.427 60.5329 171.531 60.5329C172.477 60.5329 173.318 60.3883 174.055 60.0991C174.817 59.7836 175.408 59.3236 175.829 58.7189C176.276 58.088 176.499 57.2993 176.499 56.3529C176.499 55.3539 176.263 54.5258 175.79 53.8686C175.343 53.2113 174.725 52.6593 173.936 52.2123C173.174 51.7654 172.346 51.3579 171.452 50.9899C170.558 50.6218 169.651 50.2275 168.731 49.8069C167.811 49.3863 166.97 48.8868 166.207 48.3084C165.445 47.7037 164.827 46.9545 164.354 46.0607C163.907 45.1405 163.683 43.997 163.683 42.6299C163.683 41.184 163.946 39.9747 164.472 39.002C165.024 38.0293 165.747 37.2538 166.641 36.6754C167.535 36.0971 168.521 35.6896 169.599 35.453C170.676 35.1901 171.741 35.0586 172.793 35.0586C173.45 35.0586 174.173 35.1112 174.962 35.2164C175.777 35.2952 176.565 35.453 177.328 35.6896C178.09 35.8999 178.721 36.1891 179.22 36.5571C179.72 36.9252 179.97 37.3721 179.97 37.8979C179.97 38.1608 179.904 38.4762 179.772 38.8443C179.641 39.186 179.444 39.4884 179.181 39.7513C178.944 40.0142 178.629 40.1456 178.235 40.1456C177.893 40.1456 177.512 40.0273 177.091 39.7907C176.67 39.5278 176.118 39.2781 175.435 39.0415C174.778 38.7786 173.897 38.6471 172.793 38.6471C171.846 38.6471 170.992 38.7786 170.229 39.0415C169.493 39.3043 168.915 39.6987 168.494 40.2245C168.074 40.724 167.863 41.3943 167.863 42.2356C167.863 43.0768 168.087 43.7735 168.534 44.3256C169.007 44.8514 169.625 45.3114 170.387 45.7058C171.15 46.0738 171.978 46.4287 172.872 46.7705C173.792 47.1122 174.699 47.5197 175.592 47.9929C176.513 48.4398 177.354 48.9919 178.116 49.6491C178.905 50.3064 179.523 51.1476 179.97 52.1729C180.443 53.1719 180.679 54.4206 180.679 55.9191C180.679 57.8119 180.285 59.3893 179.496 60.6512C178.734 61.8868 177.669 62.8069 176.302 63.4115C174.962 64.0162 173.424 64.3185 171.689 64.3185Z" fill="white"/>
</g>
</svg>
